<?xml version="1.0" encoding="UTF-8"?>
<svg xmlns="http://www.w3.org/2000/svg" xmlns:xlink="http://www.w3.org/1999/xlink" width="419.528" height="297.638" viewBox="0 0 419.528 297.638">
<path fill-rule="nonzero" fill="rgb(100%, 100%, 100%)" fill-opacity="1" d="M 165.867188 188.324219 C 165.867188 179.085938 162.125 173.863281 155.484375 173.863281 C 147.554688 173.863281 144.738281 178.953125 144.738281 189.121094 C 144.738281 198.734375 147.335938 204.335938 154.886719 204.335938 C 162.265625 204.335938 165.867188 198.59375 165.867188 188.324219 M 145.289062 209.800781 L 145.289062 233.574219 L 131.417969 233.574219 L 131.417969 175.996094 C 131.417969 171.914062 131.417969 167.886719 131.324219 163.839844 L 144.835938 163.839844 C 145.03125 165.175781 145.289062 168.273438 145.289062 170.121094 C 147.449219 166.425781 151.949219 162.675781 159.945312 162.675781 C 171.269531 162.675781 180.03125 172.148438 180.03125 187.792969 C 180.03125 205.574219 170.253906 215.429688 158.03125 215.429688 C 150.917969 215.429688 147.210938 212.75 145.289062 209.800781 "/>
<path fill-rule="nonzero" fill="rgb(100%, 100%, 100%)" fill-opacity="1" d="M 218.886719 183.460938 C 218.792969 177.597656 216.445312 172.652344 209.640625 172.652344 C 202.953125 172.652344 200.261719 177.265625 199.703125 183.460938 Z M 199.417969 192.039062 C 199.425781 198.347656 202.582031 204.507812 209.535156 204.507812 C 215.34375 204.507812 217.003906 202.175781 218.328125 199.125 L 232.304688 199.125 C 230.515625 205.300781 225.007812 215.429688 209.167969 215.429688 C 192.558594 215.429688 185.355469 203.019531 185.355469 189.78125 C 185.355469 173.96875 193.476562 162.675781 209.667969 162.675781 C 226.980469 162.675781 232.875 175.199219 232.875 187.792969 C 232.875 189.5 232.875 190.605469 232.691406 192.039062 Z M 199.417969 192.039062 "/>
<path fill-rule="nonzero" fill="rgb(100%, 100%, 100%)" fill-opacity="1" d="M 240.71875 177.523438 C 240.71875 172.511719 240.707031 168.054688 240.621094 163.839844 L 254.3125 163.839844 C 254.492188 164.976562 254.683594 169.980469 254.683594 172.699219 C 256.898438 166.929688 262.28125 162.722656 270.855469 162.675781 L 270.855469 175.996094 C 260.726562 175.730469 254.683594 178.460938 254.683594 192.285156 L 254.683594 214.265625 L 240.71875 214.265625 Z M 240.71875 177.523438 "/>
<path fill-rule="nonzero" fill="rgb(100%, 100%, 100%)" fill-opacity="1" d="M 274.191406 163.839844 L 281.96875 163.839844 L 281.96875 150.1875 L 295.925781 150.1875 L 295.925781 163.839844 L 305.808594 163.839844 L 305.808594 174.339844 L 295.925781 174.339844 L 295.925781 199.21875 C 295.925781 203.046875 297.101562 204.535156 301.261719 204.535156 C 302.039062 204.535156 303.394531 204.523438 304.433594 204.382812 L 304.433594 213.980469 C 301.667969 214.929688 297.871094 214.949219 295.054688 214.949219 C 285.21875 214.949219 281.96875 209.6875 281.96875 200.867188 L 281.96875 174.339844 L 274.191406 174.339844 Z M 274.191406 163.839844 "/>
<path fill-rule="nonzero" fill="rgb(100%, 100%, 100%)" fill-opacity="1" d="M 342.117188 183.460938 C 342.019531 177.597656 339.679688 172.652344 332.878906 172.652344 C 326.191406 172.652344 323.5 177.265625 322.941406 183.460938 Z M 322.644531 192.039062 C 322.65625 198.347656 325.820312 204.507812 332.765625 204.507812 C 338.582031 204.507812 340.242188 202.175781 341.566406 199.125 L 355.53125 199.125 C 353.75 205.300781 348.246094 215.429688 332.40625 215.429688 C 315.796875 215.429688 308.585938 203.019531 308.585938 189.78125 C 308.585938 173.96875 316.707031 162.675781 332.898438 162.675781 C 350.21875 162.675781 356.101562 175.199219 356.101562 187.792969 C 356.101562 189.5 356.101562 190.605469 355.921875 192.039062 Z M 322.644531 192.039062 "/>
<path fill-rule="nonzero" fill="rgb(100%, 100%, 100%)" fill-opacity="1" d="M 364.03125 176.546875 C 364.03125 172.261719 364.03125 167.574219 363.9375 163.839844 L 377.457031 163.839844 C 377.730469 165.148438 377.921875 168.644531 377.996094 170.265625 C 379.703125 167.097656 383.785156 162.675781 392.617188 162.675781 C 402.746094 162.675781 409.332031 169.515625 409.332031 182.191406 L 409.332031 214.265625 L 395.363281 214.265625 L 395.363281 183.738281 C 395.363281 178.070312 393.476562 173.96875 387.320312 173.96875 C 381.390625 173.96875 377.996094 177.265625 377.996094 186.164062 L 377.996094 214.265625 L 364.03125 214.265625 Z M 364.03125 176.546875 "/>
<path fill-rule="nonzero" fill="rgb(17.254639%, 34.117126%, 95.294189%)" fill-opacity="1" d="M 83.3125 147.109375 L 65.824219 147.109375 L 87.839844 180.6875 L 65.824219 214.265625 L 83.3125 214.265625 L 103.355469 183.703125 C 104.554688 181.871094 104.554688 179.5 103.355469 177.667969 Z M 83.3125 147.109375 "/>
<path fill-rule="nonzero" fill="rgb(100%, 100%, 100%)" fill-opacity="1" d="M 107.410156 175.011719 C 107.714844 175.46875 107.871094 175.984375 108.09375 176.476562 L 127.351562 147.109375 L 109.859375 147.109375 L 99.488281 162.925781 Z M 107.410156 175.011719 "/>
<path fill-rule="nonzero" fill="rgb(100%, 100%, 100%)" fill-opacity="1" d="M 107.410156 186.363281 L 99.488281 198.445312 L 109.859375 214.265625 L 127.351562 214.265625 L 108.09375 184.894531 C 107.871094 185.386719 107.714844 185.902344 107.410156 186.363281 "/>
<path fill-rule="nonzero" fill="rgb(100%, 100%, 100%)" fill-opacity="1" d="M 72.804688 63.703125 L 72.804688 90.34375 C 75.011719 87.074219 79.105469 83.21875 87.246094 83.21875 C 96.652344 83.21875 104.136719 88.78125 104.136719 102.460938 L 104.136719 134.808594 L 90.265625 134.808594 L 90.265625 104.546875 C 90.265625 97.988281 87.9375 94.511719 82.082031 94.511719 C 74.320312 94.511719 72.804688 100.28125 72.804688 108.058594 L 72.804688 134.808594 L 58.839844 134.808594 L 58.839844 63.703125 Z M 72.804688 63.703125 "/>
<path fill-rule="nonzero" fill="rgb(100%, 100%, 100%)" fill-opacity="1" d="M 138.484375 111.851562 L 132.796875 111.851562 C 124.386719 111.851562 121.269531 114.417969 121.269531 119.289062 C 121.269531 122.933594 123.503906 126.003906 128.527344 126.003906 C 137.394531 126.003906 138.484375 119.835938 138.484375 113.175781 Z M 152.089844 121.777344 C 152.089844 126.582031 152.476562 133.59375 152.769531 134.804688 L 139.441406 134.804688 C 139.042969 133.8125 138.757812 131.148438 138.730469 129.878906 C 136.902344 132.714844 133.472656 135.972656 124.554688 135.972656 C 112.398438 135.972656 107.273438 127.984375 107.273438 120.160156 C 107.273438 108.675781 116.492188 103.378906 131.28125 103.378906 L 138.476562 103.378906 L 138.476562 100.300781 C 138.476562 96.710938 137.183594 93.1875 130.714844 93.1875 C 124.820312 93.1875 123.523438 95.695312 122.890625 99.34375 L 109.613281 99.34375 C 110.363281 90.382812 115.90625 83.132812 131.234375 83.21875 C 144.746094 83.304688 152.089844 88.582031 152.089844 100.585938 Z M 152.089844 121.777344 "/>
<path fill-rule="nonzero" fill="rgb(100%, 100%, 100%)" fill-opacity="1" d="M 158.96875 97.089844 C 158.96875 92.808594 158.96875 88.117188 158.875 84.386719 L 172.394531 84.386719 C 172.679688 85.691406 172.859375 89.1875 172.933594 90.808594 C 174.648438 87.644531 178.722656 83.21875 187.5625 83.21875 C 197.683594 83.21875 204.265625 90.058594 204.265625 102.738281 L 204.265625 134.808594 L 190.308594 134.808594 L 190.308594 104.28125 C 190.308594 98.613281 188.414062 94.511719 182.257812 94.511719 C 176.324219 94.511719 172.933594 97.808594 172.933594 106.707031 L 172.933594 134.808594 L 158.96875 134.808594 Z M 158.96875 97.089844 "/>
<path fill-rule="nonzero" fill="rgb(100%, 100%, 100%)" fill-opacity="1" d="M 222.277344 109.140625 C 222.277344 117.820312 226.617188 122.933594 232.796875 122.933594 C 241.199219 122.933594 243.445312 117.164062 243.445312 108.707031 C 243.445312 100.226562 241.945312 94.398438 233.089844 94.398438 C 227.027344 94.398438 222.277344 99.070312 222.277344 109.140625 M 256.679688 128.667969 C 256.679688 144.847656 250.703125 155.089844 231.609375 155.089844 C 213.203125 155.089844 209.574219 144.8125 209.089844 139.117188 L 223.3125 139.117188 C 224.296875 142.585938 226.84375 144.933594 232.234375 144.933594 C 241.292969 144.933594 243 139.410156 243 129.527344 L 243 127.121094 C 240.363281 131.480469 236.195312 134.210938 228.789062 134.210938 C 215.503906 134.210938 207.941406 123.324219 207.941406 109.765625 C 207.941406 94 217.378906 83.21875 229.992188 83.21875 C 238.632812 83.21875 242.230469 87.292969 243 89.640625 C 243.09375 88.277344 243.453125 85.21875 243.550781 84.386719 L 256.785156 84.386719 C 256.699219 88.882812 256.679688 94.011719 256.679688 98.851562 Z M 256.679688 128.667969 "/>
<path fill-rule="nonzero" fill="rgb(100%, 100%, 100%)" fill-opacity="1" d="M 294.183594 104.003906 C 294.085938 98.140625 291.738281 93.195312 284.945312 93.195312 C 278.253906 93.195312 275.554688 97.808594 275.003906 104.003906 Z M 274.710938 112.582031 C 274.71875 118.890625 277.875 125.046875 284.832031 125.046875 C 290.648438 125.046875 292.304688 122.71875 293.621094 119.667969 L 307.597656 119.667969 C 305.808594 125.84375 300.300781 135.972656 284.460938 135.972656 C 267.859375 135.972656 260.652344 123.5625 260.652344 110.324219 C 260.652344 94.511719 268.769531 83.21875 284.964844 83.21875 C 302.28125 83.21875 308.167969 95.742188 308.167969 108.335938 C 308.167969 110.039062 308.167969 111.148438 307.984375 112.582031 Z M 274.710938 112.582031 "/>
<path fill-rule="nonzero" fill="rgb(100%, 100%, 100%)" fill-opacity="1" d="M 56.15625 118.511719 C 54.421875 126.914062 48.515625 135.972656 33.488281 135.972656 C 17.792969 135.972656 9.726562 125.113281 9.726562 109.964844 C 9.726562 95.070312 18.808594 83.21875 34.15625 83.21875 C 51.15625 83.21875 55.878906 95.414062 56.15625 101.117188 L 42.527344 101.117188 C 41.667969 97.015625 39.339844 94.144531 33.886719 94.144531 C 27.503906 94.144531 23.890625 99.734375 23.890625 109.511719 C 23.890625 120.246094 27.71875 125.132812 33.828125 125.132812 C 38.625 125.132812 41.195312 122.300781 42.441406 118.511719 Z M 56.15625 118.511719 "/>
</svg>
